<?xml version="1.0" standalone="no"?>
<!DOCTYPE svg PUBLIC "-//W3C//DTD SVG 20010904//EN"
 "http://www.w3.org/TR/2001/REC-SVG-20010904/DTD/svg10.dtd">
<svg version="1.0" xmlns="http://www.w3.org/2000/svg"
 width="1200.000000pt" height="1200.000000pt" viewBox="0 0 1200.000000 1200.000000"
 preserveAspectRatio="xMidYMid meet">

<g transform="translate(0.000000,1200.000000) scale(0.100000,-0.100000)"
fill="#000000" stroke="none">
<path d="M4375 11100 c-398 -7 -413 -8 -513 -33 -303 -78 -553 -215 -767 -419
-135 -129 -247 -277 -329 -437 -111 -217 -159 -393 -176 -634 -13 -183 -13
-3132 0 -3367 7 -130 16 -200 34 -270 160 -616 606 -1063 1223 -1226 87 -23
128 -27 368 -35 399 -14 1440 -8 1457 9 11 11 14 574 16 3045 2 1668 0 3105
-3 3194 -6 137 -10 163 -24 168 -26 10 -837 13 -1286 5z m785 -3214 l0 -2705
-142 5 c-79 2 -318 6 -533 9 -412 5 -466 10 -592 51 -381 127 -653 415 -754
802 -19 73 -21 121 -28 972 -5 492 -5 1289 -1 1770 l8 875 27 90 c119 404 443
713 839 802 79 17 387 28 884 31 l292 2 0 -2704z"/>
<path d="M4041 9764 c-95 -25 -210 -93 -283 -165 -123 -122 -175 -270 -166
-476 5 -99 7 -107 53 -201 64 -131 162 -230 288 -292 80 -40 95 -44 189 -49
127 -8 202 0 276 30 127 50 226 130 297 239 65 100 87 168 93 289 6 126 -6
188 -60 301 -73 153 -228 280 -398 325 -69 19 -218 18 -289 -1z"/>
<path d="M6479 11103 l-137 -4 -7 -1437 c-9 -1562 0 -4896 13 -4952 l8 -35
504 -3 c556 -3 732 5 885 42 476 116 878 435 1096 868 56 112 105 241 129 341
38 155 41 363 37 2117 -3 1674 -3 1675 -25 1763 -112 456 -374 828 -747 1057
-155 96 -359 177 -540 215 -135 29 -646 40 -1216 28z m1276 -2908 c207 -52
387 -214 455 -408 81 -230 29 -477 -136 -656 -79 -85 -151 -134 -257 -174 -75
-28 -93 -31 -202 -31 -89 0 -135 4 -180 18 -189 58 -337 183 -419 356 -83 172
-72 414 27 590 45 80 178 208 257 247 59 29 132 55 185 66 50 11 215 6 270 -8z"/>
<path d="M10024 3710 c-64 -13 -142 -57 -199 -111 -211 -199 -163 -560 91
-687 177 -88 365 -61 497 72 94 94 136 209 124 344 -14 168 -111 297 -270 357
-74 28 -180 39 -243 25z m192 -199 c59 -27 112 -86 129 -144 18 -61 18 -80 4
-149 -16 -74 -81 -139 -162 -163 -98 -28 -183 -2 -254 79 -70 80 -79 166 -28
271 39 81 112 123 215 124 33 0 71 -7 96 -18z"/>
<path d="M8430 3288 l0 -411 193 6 c255 7 330 29 428 127 162 162 153 413 -22
575 -84 77 -140 96 -309 101 -74 2 -170 6 -212 8 l-78 4 0 -410z m425 208 c87
-37 129 -106 130 -211 0 -58 -4 -78 -27 -116 -46 -79 -109 -106 -265 -116
l-103 -6 0 238 0 238 113 -5 c74 -3 125 -11 152 -22z"/>
<path d="M1050 3284 l0 -406 79 3 c44 2 82 7 85 10 3 3 8 116 12 252 4 136 10
247 13 246 3 0 90 -113 192 -252 l185 -252 50 -3 c27 -2 64 -1 81 3 l33 6 0
399 0 400 -85 0 -85 0 -2 -255 -3 -255 -190 254 -190 255 -87 1 -88 0 0 -406z"/>
<path d="M2390 3285 l0 -405 85 0 85 0 0 405 0 405 -85 0 -85 0 0 -405z"/>
<path d="M3169 3663 c-12 -31 -7 -758 5 -770 4 -4 41 -9 82 -11 l74 -4 0 266
c0 147 4 265 9 262 4 -3 95 -123 201 -266 l193 -260 79 0 78 0 0 405 0 405
-85 0 -85 0 -1 -192 c-1 -106 -4 -218 -8 -249 l-6 -56 -185 248 -185 248 -78
1 c-75 0 -78 -1 -88 -27z"/>
<path d="M4465 3680 c-4 -6 -9 -44 -12 -85 l-6 -75 137 0 136 0 0 -320 0 -320
85 0 85 0 0 320 0 320 130 0 130 0 0 85 0 85 -339 0 c-223 0 -342 -4 -346 -10z"/>
<path d="M5730 3285 l0 -405 315 0 315 0 0 80 0 80 -235 0 -236 0 3 93 3 92
213 3 212 2 0 70 0 70 -212 2 -213 3 -3 76 -3 76 113 6 c62 4 165 7 229 7 133
0 129 -3 129 98 l0 52 -315 0 -315 0 0 -405z"/>
<path d="M7027 3683 c-4 -3 -7 -183 -7 -398 l0 -392 31 -7 c17 -3 56 -6 85 -6
l54 0 0 267 0 267 198 -267 197 -266 83 -1 82 0 0 405 0 405 -90 0 -90 0 -2
-252 -3 -253 -190 253 -189 252 -76 0 c-42 0 -80 -3 -83 -7z"/>
<path d="M7930 2500 c-237 -64 -431 -229 -534 -452 -151 -326 -66 -706 213
-947 85 -74 162 -117 271 -153 131 -42 303 -50 432 -19 137 32 251 90 353 179
43 38 135 142 135 153 0 3 -55 55 -122 114 l-121 107 -21 -28 c-61 -88 -167
-159 -282 -189 -214 -56 -447 52 -545 251 -33 67 -34 71 -34 199 0 119 2 135
26 185 58 124 157 210 293 258 60 21 84 24 167 20 90 -3 103 -7 185 -47 67
-33 104 -60 152 -109 56 -58 64 -63 80 -50 116 96 222 191 222 198 0 5 -25 38
-55 73 -94 112 -228 198 -380 247 -103 33 -329 38 -435 10z"/>
<path d="M1475 2476 c-307 -59 -507 -271 -466 -495 39 -209 174 -293 616 -382
320 -64 400 -92 430 -149 39 -75 5 -146 -95 -200 l-65 -35 -188 -3 c-224 -4
-299 8 -460 74 -59 24 -111 44 -115 44 -14 0 -145 -251 -136 -260 13 -12 188
-76 288 -104 156 -46 485 -58 647 -25 279 56 425 184 448 391 23 210 -36 320
-221 413 -110 55 -170 73 -431 129 -113 25 -223 50 -244 56 -177 49 -202 190
-45 251 47 18 83 23 202 27 159 4 257 -8 406 -53 100 -31 110 -31 125 -2 31
56 97 223 91 229 -11 10 -167 57 -262 80 -111 26 -420 34 -525 14z"/>
<path d="M2574 2472 c-16 -10 400 -1482 423 -1499 12 -9 67 -13 190 -13 l172
0 10 38 c41 149 190 664 228 782 l46 145 18 -58 c9 -32 70 -246 135 -476 l117
-418 60 -7 c33 -3 118 -6 188 -6 l128 0 11 38 c5 20 101 359 213 752 159 556
201 717 191 723 -7 4 -82 6 -166 5 l-153 -3 -117 -435 c-64 -239 -129 -477
-144 -529 -25 -85 -28 -91 -39 -70 -11 22 -79 249 -243 804 l-67 230 -92 3
c-50 1 -113 -1 -139 -5 l-47 -8 -152 -523 c-84 -288 -155 -525 -158 -528 -5
-5 -17 37 -176 626 l-117 435 -154 2 c-85 2 -160 0 -166 -5z"/>
<path d="M5090 1721 l0 -761 176 0 177 0 -5 750 c-3 413 -8 753 -12 757 -3 4
-80 9 -171 11 l-165 5 0 -762z"/>
<path d="M5800 2315 l0 -165 240 0 240 0 0 -595 0 -595 165 0 165 0 2 593 3
592 235 5 235 5 3 156 2 156 -202 6 c-112 4 -402 7 -645 7 l-443 0 0 -165z"/>
<path d="M9150 1720 l0 -760 160 0 160 0 0 300 0 300 350 0 350 0 0 -300 0
-300 160 0 160 0 0 754 0 753 -52 7 c-29 3 -101 6 -160 6 l-108 0 0 -300 0
-300 -350 0 -350 0 0 300 0 300 -160 0 -160 0 0 -760z"/>
</g>
</svg>
